<svg width="1024" height="1024" viewBox="0 0 1024 1024" fill="none" xmlns="http://www.w3.org/2000/svg">
  <rect width="1024" height="1024" rx="232" fill="#000000"/>
  <g transform="translate(204 148) scale(5.6)">
    <path d="M55 8 C70 4,90 18,92 40 C94 56,90 72,82 86 C78 94,76 104,78 112 C79 117,82 120,84 116 C86 112,84 106,80 102 C74 98,60 110,48 116 C38 122,24 118,18 106 C12 94,14 76,18 62 C22 48,30 18,55 8Z" stroke="#00E5CC" stroke-width="8" stroke-linecap="round" stroke-linejoin="round"/>
    <path d="M43 35 C47 30,57 29,64 32 C70 35,72 44,68 52 C64 59,54 61,47 57 C41 53,39 42,43 35Z" fill="#00E5CC"/>
  </g>
</svg>
